#!OML:ASF X:\für Bonn\!DataBase\2005_08_12_Daniel\c3d\Daniel.ASF
:FULLY-SPECIFIED
:DEGREES
3280
root -3.0934 16.9258 8.27201 -188.378 328.451 -181.285
lowerback 12.5799 -0.972832 -3.20424
upperback 4.06815 -2.04376 -0.697147
thorax -2.70171 -1.1626 1.38378
lowerneck 1.99022 6.53366 0.732751
upperneck 13.1739 8.73768 -6.33171
head 4.37466 3.77732 -1.99949
rclavicle 6.06293e-014 -7.95139e-015
rhumerus -37.7829 -21.4127 -72.7656
rradius 18.5435
rwrist 24.4672
rhand -19.23 18.0702
rfingers 7.12502
rthumb 7.08312 -11.7913
lclavicle 6.06293e-014 -7.95139e-015
lhumerus -31.3761 10.9041 79.5432
lradius 45.6045
lwrist -1.80583
lhand -13.256 -9.39855
lfingers 7.12502
lthumb 12.8464 20.1861
rfemur -11.4331 16.099 -2.02302
rtibia 26.8311
rfoot -3.16577 -3.8708
rtoes -30.8658
lfemur 6.60705 -25.8859 -10.2166
ltibia 35.3972
lfoot -22.9792 -24.2789
ltoes -10.2362
3281
root -2.95772 16.8906 8.12008 -188.464 327.79 -181.12
lowerback 12.7514 -0.948788 -3.0331
upperback 4.04766 -1.99748 -0.71981
thorax -2.82519 -1.13641 1.26297
lowerneck 2.01558 6.55753 0.814584
upperneck 13.0332 8.77986 -6.36546
head 4.32727 3.81218 -2.02407
rclavicle 6.52759e-014 -1.19271e-015
rhumerus -37.8784 -22.7528 -72.2754
rradius 17.9914
rwrist 25.736
rhand -19.2097 17.8359
rfingers 7.12502
rthumb 7.10278 -12.025
lclavicle 6.52759e-014 -1.19271e-015
lhumerus -31.6136 12.2275 78.741
lradius 44.7959
lwrist -2.58728
lhand -13.1158 -9.35569
lfingers 7.12502
lthumb 12.9815 20.2204
rfemur -10.944 14.5845 -1.55145
rtibia 27.2353
rfoot -4.93084 -2.44012
rtoes -30.3099
lfemur 5.98526 -25.631 -9.15042
ltibia 36.2026
lfoot -22.5847 -24.1211
ltoes -11.0749
3282
root -2.82285 16.8645 7.967 -188.57 327.142 -180.932
lowerback 12.9659 -0.929425 -2.81694
upperback 3.97736 -1.95002 -0.74757
thorax -3.02538 -1.10656 1.11314
lowerneck 2.0622 6.60593 0.777711
upperneck 12.9716 8.83848 -6.23524
head 4.28777 3.85215 -1.97184
rclavicle 1.20861e-013 -1.92821e-014
rhumerus -38.1119 -24.0726 -71.7174
rradius 17.5004
rwrist 27.0544
rhand -19.0895 17.4523
rfingers 7.12502
rthumb 7.21876 -12.4046
lclavicle 1.20861e-013 -1.92821e-014
lhumerus -32.0199 13.5816 77.8381
lradius 43.9748
lwrist -3.46508
lhand -13.0617 -9.41166
lfingers 7.12502
lthumb 13.0337 20.1611
rfemur -10.4694 13.1417 -0.995202
rtibia 27.6175
rfoot -6.51628 -1.1624
rtoes -29.7361
lfemur 5.40036 -25.4182 -8.13066
ltibia 36.9613
lfoot -21.978 -23.7923
ltoes -12.1418
3283
root -2.69009 16.8467 7.81277 -188.673 326.539 -180.828
lowerback 13.1876 -0.896 -2.7014
upperback 3.96352 -1.89971 -0.750129
thorax -3.166 -1.07963 1.04444
lowerneck 1.97906 6.66824 0.663972
upperneck 12.9089 8.93036 -6.1919
head 4.27548 3.89908 -1.93096
rclavicle 1.41137e-014 -5.96354e-015
rhumerus -38.1726 -25.3508 -71.1052
rradius 16.8867
rwrist 28.475
rhand -18.9244 17.1679
rfingers 7.12502
rthumb 7.37815 -12.6835
lclavicle 1.41137e-014 -5.96354e-015
lhumerus -32.3778 15.1864 76.969
lradius 43.0544
lwrist -4.48926
lhand -13.0974 -9.35841
lfingers 7.12502
lthumb 12.9993 20.2166
rfemur -10.0449 11.5788 -0.460795
rtibia 28.0075
rfoot -7.80649 0.293831
rtoes -29.4783
lfemur 4.91571 -25.1734 -7.25743
ltibia 37.639
lfoot -21.0994 -23.3944
ltoes -12.9573
3284
root -2.55786 16.8344 7.66482 -188.773 325.951 -180.651
lowerback 13.4351 -0.870239 -2.43525
upperback 3.91192 -1.83824 -0.775197
thorax -3.36571 -1.04509 0.866645
lowerneck 1.82696 6.71544 0.551923
upperneck 12.9846 8.99754 -6.06142
head 4.31994 3.93038 -1.85932
rclavicle 7.45691e-014 -4.21423e-014
rhumerus -38.271 -26.8162 -70.3774
rradius 16.1535
rwrist 30.1009
rhand -18.7612 17.0257
rfingers 7.12502
rthumb 7.53565 -12.8201
lclavicle 7.45691e-014 -4.21423e-014
lhumerus -32.8308 16.8449 76.0256
lradius 42.1559
lwrist -5.5099
lhand -13.3051 -9.32201
lfingers 7.12502
lthumb 12.799 20.2656
rfemur -9.73351 9.83123 0.151406
rtibia 28.3574
rfoot -8.81912 1.72735
rtoes -29.2199
lfemur 4.33855 -24.928 -6.31112
ltibia 38.2992
lfoot -19.8157 -22.9225
ltoes -13.2193
3285
root -2.42593 16.8251 7.52324 -188.825 325.37 -180.553
lowerback 13.7105 -0.839138 -2.22484
upperback 3.86943 -1.77906 -0.816151
thorax -3.56913 -1.01297 0.703869
lowerneck 1.73714 6.76963 0.425526
upperneck 12.9124 9.07384 -5.94572
head 4.29882 3.97356 -1.79203
rclavicle 3.03147e-014 3.57812e-015
rhumerus -38.4004 -28.5206 -69.4448
rradius 15.3845
rwrist 32.1936
rhand -18.5607 16.7703
rfingers 7.12502
rthumb 7.72917 -13.0685
lclavicle 3.03147e-014 3.57812e-015
lhumerus -33.3596 18.6928 75.0411
lradius 41.2823
lwrist -6.6255
lhand -13.7698 -9.07071
lfingers 7.12502
lthumb 12.3511 20.5445
rfemur -9.49536 8.03284 0.674892
rtibia 28.6924
rfoot -9.64855 3.18778
rtoes -28.9649
lfemur 3.73506 -24.6787 -5.4949
ltibia 38.9651
lfoot -18.4772 -22.2839
ltoes -13.6174
3286
root -2.29509 16.8192 7.38294 -188.892 324.798 -180.412
lowerback 13.968 -0.803756 -1.96927
upperback 3.8333 -1.70508 -0.839791
thorax -3.75665 -0.974474 0.529952
lowerneck 1.55223 6.80948 0.302051
upperneck 12.94 9.13717 -5.84673
head 4.33302 4.00361 -1.7283
rclavicle -1.96797e-014 4.77083e-015
rhumerus -38.5491 -30.2384 -68.4411
rradius 14.6412
rwrist 34.2169
rhand -18.291 16.6435
rfingers 7.12502
rthumb 7.98946 -13.1855
lclavicle -1.96797e-014 4.77083e-015
lhumerus -33.9516 20.5845 74.0229
lradius 40.3999
lwrist -7.6411
lhand -14.3408 -8.85105
lfingers 7.12502
lthumb 11.8005 20.7965
rfemur -9.24722 6.33635 1.25684
rtibia 28.9998
rfoot -10.3861 4.4758
rtoes -28.519
lfemur 3.10259 -24.453 -4.70736
ltibia 39.6889
lfoot -17.0648 -21.4778
ltoes -13.8519
3287
root -2.1659 16.82 7.24193 -188.999 324.315 -180.226
lowerback 14.1602 -0.741745 -1.66938
upperback 3.83399 -1.58797 -0.860762
thorax -3.87103 -0.917326 0.32364
lowerneck 1.37303 6.83671 0.235955
upperneck 12.9516 9.18515 -5.76649
head 4.36431 4.02942 -1.68155
rclavicle 1.7257e-013 -1.66979e-014
rhumerus -38.6594 -31.9189 -67.4556
rradius 13.8931
rwrist 36.2704
rhand -18.0731 16.4556
rfingers 7.12502
rthumb 8.19976 -13.3653
lclavicle 1.7257e-013 -1.66979e-014
lhumerus -34.5418 22.6989 72.8757
lradius 39.3268
lwrist -8.71908
lhand -15.2595 -8.74186
lfingers 7.12502
lthumb 10.9145 20.9545
rfemur -9.01549 4.81467 1.91898
rtibia 29.3271
rfoot -10.9893 5.58676
rtoes -28.2409
lfemur 2.51814 -24.0859 -3.9505
ltibia 40.4638
lfoot -15.7666 -20.4771
ltoes -14.2905
3288
root -2.03782 16.8275 7.10403 -189.052 323.805 -180.082
lowerback 14.3479 -0.689614 -1.44737
upperback 3.79704 -1.48841 -0.838294
thorax -4.01788 -0.866759 0.20922
lowerneck 1.272 6.8692 0.0607381
upperneck 12.9795 9.23511 -5.69604
head 4.38078 4.04819 -1.62198
rclavicle -8.8981e-014 -5.1684e-015
rhumerus -38.8705 -33.7232 -66.1516
rradius 13.0619
rwrist 38.6529
rhand -17.7702 16.4253
rfingers 7.12502
rthumb 8.49207 -13.3839
lclavicle -8.8981e-014 -5.1684e-015
lhumerus -35.1422 25.1643 71.682
lradius 37.9455
lwrist -9.92968
lhand -16.3882 -8.55711
lfingers 7.12502
lthumb 9.82567 21.1936
rfemur -8.81121 3.49852 2.53715
rtibia 29.6633
rfoot -11.5693 6.49779
rtoes -27.8183
lfemur 1.89925 -23.7136 -3.30208
ltibia 41.282
lfoot -14.5546 -19.335
ltoes -14.7152
